<?xml version="1.0" standalone="no"?>
<!DOCTYPE svg PUBLIC "-//W3C//DTD SVG 20010904//EN"
 "http://www.w3.org/TR/2001/REC-SVG-20010904/DTD/svg10.dtd">
<svg version="1.0" xmlns="http://www.w3.org/2000/svg"
 width="654.000000pt" height="654.000000pt" viewBox="0 0 654.000000 654.000000"
 preserveAspectRatio="xMidYMid meet">
<metadata>
Created by potrace 1.14, written by Peter Selinger 2001-2017
</metadata>
<g transform="translate(0.000000,654.000000) scale(0.100000,-0.100000)"
fill="#000000" stroke="none">
<path d="M3170 5822 c0 -71 -3 -163 -6 -205 l-7 -77 25 0 c24 0 25 2 32 92 4
51 9 94 10 96 2 2 49 0 105 -4 l101 -7 0 -88 c0 -88 0 -89 25 -89 l25 0 0 200
0 200 -25 0 c-25 0 -25 -1 -25 -90 l0 -90 -28 0 c-16 0 -63 3 -105 6 l-77 7 0
88 c0 88 0 89 -25 89 l-25 0 0 -128z"/>
<path d="M2735 5894 c-27 -7 -85 -20 -127 -29 -66 -14 -78 -20 -78 -37 0 -17
4 -20 30 -14 17 3 42 9 58 12 l27 5 39 -175 c37 -167 41 -176 63 -176 12 0 23
6 23 13 0 6 -18 88 -39 180 -26 115 -35 170 -27 172 6 2 30 9 54 15 42 11 48
16 34 36 -5 8 -21 7 -57 -2z"/>
<path d="M3846 5688 c-27 -101 -51 -188 -53 -194 -2 -6 38 -22 98 -38 83 -22
103 -25 110 -14 14 22 12 23 -63 42 -40 11 -77 22 -81 26 -7 6 16 109 29 132
3 4 35 -2 72 -12 50 -14 69 -16 74 -7 16 25 13 27 -95 53 -15 3 -29 10 -32 14
-8 14 27 130 39 130 6 0 31 -6 56 -14 94 -28 100 -28 100 -6 0 15 -12 23 -57
35 -32 9 -71 21 -87 26 -60 19 -58 22 -110 -173z"/>
<path d="M2075 5675 c-89 -32 -126 -129 -71 -188 32 -34 64 -41 126 -28 74 16
107 14 130 -9 28 -28 25 -66 -6 -95 -38 -35 -80 -42 -113 -17 -20 14 -32 17
-44 10 -26 -14 -20 -36 13 -53 67 -35 168 0 204 69 18 36 18 42 5 80 -22 63
-61 78 -167 64 -78 -11 -84 -11 -104 9 -27 28 -27 72 2 95 34 27 70 33 100 16
19 -11 32 -12 48 -5 28 13 28 23 -1 42 -35 23 -78 26 -122 10z"/>
<path d="M4447 5673 c-15 -15 -5 -31 36 -53 23 -13 43 -24 45 -25 1 -1 -36
-74 -83 -161 -78 -144 -84 -160 -69 -171 9 -7 20 -10 25 -8 4 3 44 74 90 159
l82 155 50 -25 c40 -21 51 -23 58 -12 5 7 9 15 9 18 0 10 -237 130 -243 123z"/>
<path d="M1543 5333 l-83 -66 38 -46 c20 -25 78 -96 128 -158 l92 -112 81 66
c45 36 81 70 81 75 0 26 -35 15 -85 -26 -31 -25 -60 -46 -63 -46 -4 0 -20 17
-37 37 -60 74 -60 67 0 113 58 45 60 47 46 69 -7 12 -19 6 -58 -26 -26 -22
-53 -43 -59 -46 -6 -4 -30 16 -54 45 l-44 51 30 26 c16 14 44 38 62 53 21 17
30 32 26 42 -3 9 -9 16 -13 16 -3 0 -43 -30 -88 -67z"/>
<path d="M4856 5178 c-112 -137 -124 -154 -109 -166 10 -7 21 -11 25 -10 4 2
63 71 132 154 91 112 121 155 113 163 -6 6 -17 11 -23 11 -7 0 -69 -69 -138
-152z"/>
<path d="M5195 4943 c-106 -56 -151 -169 -106 -268 19 -43 78 -100 118 -116
30 -11 113 -12 113 -1 0 19 -37 40 -78 45 -52 6 -87 36 -114 94 -16 37 -17 49
-7 85 13 51 71 111 124 128 102 34 209 -60 190 -168 -7 -44 17 -89 34 -62 18
26 23 87 11 129 -13 50 -72 119 -117 138 -43 18 -131 16 -168 -4z"/>
<path d="M1086 4856 c-16 -25 -15 -27 95 -198 61 -95 115 -176 118 -181 4 -4
13 3 20 17 12 21 10 28 -12 61 l-26 38 31 43 c17 23 42 57 57 74 l26 31 44
-15 c41 -15 45 -15 57 1 7 10 13 20 14 23 0 3 -87 31 -193 64 -105 32 -197 61
-203 63 -6 2 -18 -7 -28 -21z m241 -97 l24 -9 -42 -52 c-23 -29 -44 -54 -48
-56 -7 -2 -121 161 -121 172 0 4 139 -37 187 -55z"/>
<path d="M855 3843 c-88 -18 -185 -59 -257 -107 -74 -49 -184 -166 -231 -246
-131 -225 -141 -579 -23 -825 95 -199 267 -341 481 -396 111 -29 299 -29 408
0 132 35 248 102 355 206 51 50 95 89 96 86 2 -3 9 -68 16 -143 l13 -138 212
0 211 0 -18 178 c-11 97 -29 271 -41 387 l-22 209 40 383 41 383 -212 0 -211
0 -13 -140 c-7 -77 -14 -140 -15 -140 -2 0 -38 35 -81 78 -128 127 -249 194
-406 226 -95 20 -250 19 -343 -1z m368 -338 c128 -27 253 -110 344 -227 49
-64 123 -199 123 -224 0 -21 -56 -129 -100 -194 -85 -126 -237 -233 -367 -261
-34 -6 -95 -9 -146 -6 -76 4 -99 10 -162 41 -155 76 -235 220 -235 422 0 317
237 514 543 449z"/>
<path d="M3360 3844 c-139 -30 -305 -135 -387 -244 -20 -27 -39 -47 -42 -45
-2 3 -14 62 -25 133 l-22 127 -208 3 -208 2 6 -27 c3 -16 26 -138 51 -273 l45
-245 0 -497 0 -498 205 0 205 0 0 428 c0 333 3 438 14 479 44 167 155 275 317
309 187 40 371 -26 436 -157 50 -101 53 -131 53 -611 l0 -448 205 0 206 0 -3
518 c-4 582 -2 564 -83 728 -105 215 -323 335 -602 333 -54 0 -127 -7 -163
-15z"/>
<path d="M4550 3060 l0 -770 183 0 182 1 245 289 c135 159 247 290 250 290 3
-1 86 -131 185 -290 l180 -290 242 0 243 0 -84 128 c-45 70 -174 267 -286 437
-112 171 -204 317 -204 326 -1 15 81 114 448 547 l87 102 -243 0 -243 -1 -385
-470 -385 -470 -3 470 -2 471 -205 0 -205 0 0 -770z"/>
<path d="M1935 1346 c-5 -3 -22 -7 -37 -10 -15 -4 -44 -20 -63 -38 -126 -110
-96 -295 57 -353 82 -31 168 -4 225 71 l23 31 -87 52 c-99 60 -105 62 -110 39
-3 -12 15 -28 61 -55 36 -21 64 -42 63 -48 -7 -23 -71 -55 -109 -55 -68 0
-139 55 -153 119 -14 63 33 154 96 186 83 44 209 -21 209 -108 0 -15 9 -31 25
-41 32 -21 35 -20 35 7 0 72 -45 144 -110 177 -38 19 -105 33 -125 26z"/>
<path d="M4337 1295 c-42 -25 -77 -47 -77 -49 0 -3 196 -330 206 -345 2 -1 12
3 23 11 20 14 19 15 -19 79 -22 35 -39 69 -40 74 0 6 15 19 33 29 91 53 123
115 92 180 -38 79 -107 85 -218 21z m157 -26 c33 -39 33 -69 -1 -100 -39 -35
-82 -61 -92 -55 -5 3 -24 32 -44 65 l-36 60 42 24 c80 46 97 47 131 6z"/>
<path d="M3952 1111 c-10 -6 -4 -38 27 -148 40 -142 42 -172 13 -206 -24 -27
-85 -42 -119 -28 -40 16 -49 35 -93 183 -21 71 -40 132 -43 135 -3 2 -15 2
-26 -2 -22 -7 -23 0 39 -205 35 -115 65 -150 133 -157 60 -7 110 11 147 53 24
28 30 44 30 81 0 55 -69 303 -85 303 -5 0 -16 -4 -23 -9z"/>
<path d="M2447 932 c-26 -97 -51 -187 -54 -199 -4 -19 -1 -23 20 -23 23 0 27
6 44 71 19 76 31 88 67 71 18 -8 28 -29 46 -101 20 -78 27 -92 47 -98 13 -3
26 -3 28 -1 3 3 -6 42 -20 89 -13 46 -25 87 -25 92 0 4 12 7 28 7 35 0 68 23
87 60 40 78 -5 148 -116 179 -37 11 -75 22 -85 25 -17 5 -24 -14 -67 -172z
m149 107 c76 -20 105 -80 63 -133 -23 -29 -65 -34 -130 -14 -28 8 -38 16 -35
27 3 9 12 42 21 74 9 31 21 57 26 57 6 0 30 -5 55 -11z"/>
<path d="M3163 991 c-148 -38 -199 -236 -89 -346 91 -91 244 -78 313 27 24 36
28 51 28 118 0 67 -4 82 -28 118 -44 67 -142 104 -224 83z m148 -68 c117 -99
55 -293 -94 -293 -95 0 -150 62 -149 167 1 97 57 153 154 153 47 0 62 -5 89
-27z"/>
</g>
</svg>
