<svg width="79" height="70" viewBox="0 0 79 70" fill="none" xmlns="http://www.w3.org/2000/svg">
<g clip-path="url(#clip0_3536_9321)">
<path d="M14.7543 15.81L13.3481 17.6689L14.038 18.7277L13.5949 19.3145L10.5215 14.5715L11.0078 13.9296L16.4047 15.5968L15.9616 16.1837L14.7543 15.81ZM14.1817 15.6255L11.4461 14.7704L13.0152 17.1682L14.1817 15.6255Z" fill="#B55488"/>
<path d="M16.53 8.92064L17.6583 10.3052L19.1674 9.07635L19.5315 9.5219L18.0224 10.7508L19.1842 12.1761L20.8706 10.8011L21.2347 11.2466L19.0069 13.0624L15.627 8.91585L17.8547 7.1001L18.2188 7.54565L16.53 8.92064Z" fill="#B55488"/>
<path d="M24.9638 8.77216C24.6596 8.78414 24.3865 8.72425 24.1446 8.5949C23.905 8.46554 23.7182 8.27151 23.584 8.0128L24.25 7.68463C24.3841 7.89782 24.5686 8.04155 24.8081 8.11581C25.0477 8.19007 25.3208 8.14934 25.6346 7.99603C25.9316 7.84991 26.1304 7.65828 26.2286 7.42592C26.3268 7.19116 26.3197 6.9588 26.2047 6.72405C26.1136 6.5396 25.9915 6.41743 25.8334 6.35275C25.6753 6.28808 25.5076 6.26172 25.3255 6.27849C25.1435 6.29526 24.9087 6.3288 24.6189 6.38868C24.262 6.46294 23.9673 6.50367 23.7374 6.51564C23.5074 6.52762 23.2798 6.47732 23.057 6.36712C22.8343 6.25693 22.6498 6.05332 22.5037 5.75628C22.3743 5.49518 22.3264 5.23168 22.36 4.96339C22.3935 4.6951 22.5037 4.44837 22.6905 4.2208C22.8774 3.99323 23.1265 3.80159 23.4379 3.64828C23.8883 3.4279 24.3099 3.35843 24.7075 3.44227C25.1052 3.52611 25.4142 3.7441 25.6322 4.09623L24.9447 4.43399C24.8321 4.26152 24.6548 4.14893 24.4177 4.09144C24.1781 4.03635 23.9194 4.07707 23.6415 4.21361C23.3804 4.34297 23.2008 4.51544 23.1026 4.73103C23.0043 4.94662 23.0139 5.17658 23.1337 5.42092C23.2199 5.59579 23.3397 5.71317 23.4906 5.77545C23.6439 5.83773 23.8068 5.86168 23.9793 5.84731C24.1518 5.83294 24.3865 5.7994 24.6836 5.74431C25.0429 5.67484 25.3399 5.63651 25.5747 5.62693C25.8094 5.61735 26.0394 5.66526 26.2622 5.77545C26.4873 5.88324 26.6742 6.08925 26.8227 6.39348C26.9377 6.62823 26.9856 6.87736 26.9616 7.14565C26.9377 7.41394 26.8395 7.67025 26.6598 7.91938C26.4802 8.16851 26.2262 8.37212 25.8957 8.53501C25.5795 8.67874 25.268 8.76018 24.9638 8.77216Z" fill="#B55488"/>
<path d="M33.0344 0.526978L33.1613 1.08033L31.7408 1.40371L32.802 6.06048L32.1217 6.21618L31.0605 1.55942L29.6328 1.8852L29.5059 1.33185L33.0344 0.526978Z" fill="#B55488"/>
<path d="M42.0478 0.0838409L41.9377 5.42571L41.2406 5.41133L41.2909 2.98953L38.5696 2.93443L38.5193 5.35624L37.8223 5.34187L37.9325 0L38.6295 0.0143727L38.5816 2.35952L41.3029 2.41462L41.3508 0.0694682L42.0478 0.0838409Z" fill="#B55488"/>
<path d="M47.9199 1.6744L47.448 3.39673L49.326 3.91176L49.1751 4.46511L47.2971 3.95008L46.8084 5.72511L48.9068 6.30242L48.7559 6.85577L45.9844 6.09402L47.4001 0.934204L50.1716 1.69596L50.0207 2.24931L47.9199 1.6744Z" fill="#B55488"/>
<path d="M57.8177 5.18132L57.547 5.67957L56.2654 4.98729L53.9921 9.18652L53.3789 8.85355L55.6522 4.65432L54.3634 3.95724L54.6341 3.45898L57.8177 5.18132Z" fill="#B55488"/>
<path d="M62.1911 8.37456L58.7968 12.5019L58.2578 12.0588L61.6522 7.9314L62.1911 8.37456Z" fill="#B55488"/>
<path d="M65.1022 12.8612C65.5765 12.7917 66.0293 12.8468 66.4653 13.0217C66.8988 13.199 67.2701 13.484 67.572 13.8745C67.9289 14.3344 68.1301 14.8231 68.1732 15.3381C68.2163 15.8531 68.0966 16.349 67.8115 16.8209L67.2989 16.1597C67.4618 15.8459 67.5288 15.5249 67.4953 15.1992C67.4618 14.8734 67.3252 14.5548 67.0881 14.2482C66.8605 13.9535 66.585 13.7427 66.2664 13.6134C65.9478 13.484 65.6101 13.4529 65.2556 13.5152C64.901 13.5774 64.5513 13.7403 64.2135 14.0038C63.8782 14.2649 63.6362 14.5572 63.4877 14.8877C63.3392 15.2159 63.2865 15.5513 63.3296 15.8914C63.3751 16.2316 63.5093 16.5502 63.7392 16.8448C63.9764 17.1515 64.2495 17.3623 64.5561 17.4772C64.8627 17.5922 65.1861 17.609 65.5334 17.5299L66.0461 18.1911C65.5191 18.3468 65.0136 18.3372 64.5273 18.1647C64.0411 17.9923 63.6195 17.6761 63.2625 17.2161C62.9583 16.8233 62.7739 16.3969 62.7092 15.9322C62.6445 15.4674 62.702 15.0171 62.8864 14.5787C63.0709 14.1404 63.3679 13.7595 63.78 13.4409C64.1872 13.1247 64.6303 12.9307 65.1022 12.8612Z" fill="#B55488"/>
<path d="M24.1478 62.6053C24.1813 62.2627 24.1238 61.9441 23.9729 61.6519C23.822 61.3596 23.5849 61.1177 23.2663 60.9237C22.9477 60.7296 22.6147 60.629 22.2721 60.6218C21.9272 60.6123 21.599 60.7009 21.2876 60.8853C20.9762 61.0698 20.7103 61.3405 20.4947 61.6998C20.2767 62.0591 20.1594 62.416 20.1426 62.7777C20.1234 63.1371 20.2001 63.4676 20.3654 63.7695C20.533 64.0713 20.775 64.318 21.0936 64.5121C21.5391 64.7827 21.9871 64.8714 22.4374 64.7803C22.8878 64.6893 23.2734 64.4306 23.5968 64.0042L21.7739 62.8999L22.0685 62.4136L24.5263 63.9036L24.2484 64.3635C23.9849 64.7181 23.6591 64.9911 23.2687 65.1804C22.8782 65.372 22.4638 65.4583 22.0254 65.4415C21.587 65.4247 21.1678 65.293 20.7654 65.051C20.3414 64.7947 20.0156 64.4594 19.7857 64.0497C19.5557 63.6401 19.4479 63.1946 19.4599 62.7179C19.4719 62.2412 19.6108 61.7788 19.8815 61.3333C20.1522 60.8877 20.4971 60.5476 20.9163 60.3152C21.3355 60.0829 21.7811 59.9727 22.2506 59.9846C22.7201 59.9966 23.168 60.1332 23.592 60.3895C24.0759 60.6841 24.4328 61.065 24.6604 61.5297C24.888 61.9968 24.9551 62.4999 24.8616 63.0412L24.1478 62.6053Z" fill="#B55488"/>
<path d="M30.4187 68.9963L29.7743 66.553L28.9622 66.3278L28.3802 68.4334L27.707 68.2465L29.1299 63.0963L30.7924 63.5562C31.1804 63.664 31.4918 63.8221 31.7242 64.0281C31.9566 64.2366 32.1075 64.4713 32.177 64.7348C32.2464 64.9983 32.2416 65.2738 32.1626 65.566C32.0644 65.9206 31.8751 66.2056 31.5972 66.4188C31.317 66.6344 30.9625 66.7278 30.5289 66.7039L31.226 69.2191L30.4187 68.9963ZM29.1108 65.7864L30.1001 66.0595C30.4642 66.1601 30.7636 66.1457 30.9936 66.0164C31.226 65.887 31.3817 65.6714 31.4655 65.372C31.5493 65.0678 31.5254 64.8043 31.3912 64.5887C31.2571 64.3707 31.0056 64.2126 30.6367 64.1096L29.6473 63.8365L29.1108 65.7864Z" fill="#B55488"/>
<path d="M37.2483 69.6719C36.8363 69.4467 36.5081 69.1257 36.2638 68.7137C36.0195 68.3017 35.8925 67.8346 35.8853 67.3124C35.8757 66.7901 35.9883 66.3206 36.2183 65.899C36.4483 65.4798 36.7669 65.1493 37.1717 64.9097C37.5765 64.6702 38.0269 64.548 38.5227 64.5384C39.0234 64.5312 39.4809 64.639 39.8929 64.8642C40.3049 65.0894 40.6331 65.408 40.8751 65.8176C41.117 66.2272 41.2416 66.6967 41.2511 67.2213C41.2607 67.7483 41.1505 68.2202 40.9206 68.637C40.693 69.0539 40.3744 69.382 39.9696 69.6216C39.5647 69.8611 39.112 69.9833 38.6114 69.9929C38.1155 70.0072 37.6628 69.8971 37.2483 69.6719ZM39.6055 69.1161C39.9025 68.9365 40.1325 68.685 40.2978 68.3616C40.463 68.0382 40.5421 67.6621 40.5373 67.2381C40.5301 66.8093 40.4391 66.4356 40.2618 66.1194C40.0846 65.8032 39.8474 65.5613 39.548 65.3912C39.2485 65.2211 38.9108 65.1421 38.5323 65.1469C38.1538 65.154 37.8185 65.2451 37.5238 65.4247C37.2292 65.6044 37.0016 65.8535 36.8339 66.1769C36.6662 66.5003 36.5896 66.874 36.5944 67.3028C36.6016 67.7268 36.6926 68.0981 36.8699 68.4167C37.0471 68.7353 37.2843 68.9796 37.5861 69.1497C37.8879 69.3198 38.2257 69.3988 38.5994 69.394C38.9755 69.3868 39.3084 69.2958 39.6055 69.1161Z" fill="#B55488"/>
<path d="M45.3812 63.8246L46.3226 67.0704C46.4544 67.5279 46.6652 67.8321 46.9526 67.9902C47.2401 68.1459 47.5826 68.1675 47.9803 68.0525C48.3731 67.9375 48.6486 67.7387 48.8091 67.4537C48.9696 67.1686 48.9816 66.7973 48.8498 66.3398L47.9084 63.0939L48.5792 62.8999L49.5182 66.1386C49.6427 66.565 49.6595 66.9506 49.5733 67.2908C49.4846 67.6333 49.317 67.916 49.0654 68.1436C48.8139 68.3711 48.5073 68.5364 48.1456 68.6418C47.7815 68.7472 47.4341 68.7712 47.1012 68.7137C46.7682 68.6562 46.4736 68.5053 46.2196 68.2633C45.9657 68.0214 45.7765 67.686 45.6519 67.2572L44.7129 64.0186L45.3812 63.8246Z" fill="#B55488"/>
<path d="M56.1397 61.9897C56.0295 62.3993 55.7085 62.7634 55.1743 63.0844L54.2952 63.6138L55.445 65.5254L54.8485 65.8847L52.0938 61.307L53.5717 60.4183C54.0892 60.1069 54.5563 59.9967 54.9755 60.0829C55.3947 60.1691 55.7229 60.4111 55.96 60.8039C56.1876 61.1848 56.2475 61.5801 56.1397 61.9897ZM55.4833 61.9322C55.5528 61.6927 55.5097 61.4387 55.3492 61.1728C55.009 60.6075 54.5156 60.5213 53.8664 60.9117L52.9873 61.4411L53.9981 63.1227L54.8773 62.5933C55.2102 62.3921 55.4115 62.1717 55.4833 61.9322Z" fill="#B55488"/>
<path d="M18.9624 27.6987L18.5624 31.5434C17.609 30.2929 16.4712 29.2845 15.1752 28.5419C13.6493 27.6675 11.9342 27.2244 10.0729 27.2244C8.1182 27.2244 6.35993 27.6747 4.8484 28.561C3.33208 29.4497 2.13196 30.6978 1.27917 32.2716C0.428787 33.8382 0 35.6875 0 37.7692C0 39.8293 0.428787 41.6738 1.27678 43.25C2.12956 44.8358 3.32968 46.091 4.84601 46.9797C6.35993 47.866 8.1182 48.3164 10.0705 48.3164C11.9318 48.3164 13.6493 47.8732 15.1728 46.9989C16.4735 46.2539 17.6066 45.2382 18.5552 43.9734L18.96 47.8421H24.4672L23.3988 37.7692L24.4672 27.6963H18.9624V27.6987ZM14.2889 43.0583C13.3259 43.5733 12.2599 43.8321 11.1245 43.8321C10.0202 43.8321 9.03087 43.5757 8.18288 43.0703C7.33488 42.5649 6.65937 41.851 6.17309 40.9479C5.68202 40.0401 5.43289 38.9717 5.43289 37.7692C5.43289 36.5666 5.68202 35.4983 6.17309 34.5904C6.65937 33.6897 7.33488 32.9759 8.18288 32.468C9.03087 31.9626 10.0202 31.7063 11.1245 31.7063C12.2599 31.7063 13.3235 31.9674 14.2889 32.48C15.2686 33.0022 16.1478 33.7376 16.9047 34.6647C17.6353 35.5606 18.2318 36.605 18.6798 37.7692C18.2318 38.9334 17.6353 39.9778 16.9047 40.8737C16.1454 41.8031 15.2662 42.5385 14.2889 43.0583Z" fill="white"/>
<path d="M47.4052 28.3718C46.0709 27.61 44.4396 27.2244 42.5568 27.2244C40.8513 27.2244 39.2894 27.6292 37.9096 28.4245C36.676 29.1383 35.6292 30.1324 34.7979 31.3877L34.1823 27.6987H28.7949L30.043 34.4922V47.8421H35.4088V38.0063C35.4088 36.7559 35.6483 35.654 36.1178 34.7317C36.5825 33.8238 37.2509 33.1076 38.1037 32.6046C38.9612 32.0967 39.9817 31.8404 41.1315 31.8404C42.8131 31.8404 44.0444 32.2932 44.8972 33.2274C45.7476 34.1616 46.1787 35.5869 46.1787 37.4649V47.8421H51.5446V36.7535C51.5446 34.7916 51.1924 33.0813 50.4954 31.6751C49.7887 30.2522 48.7491 29.1383 47.4052 28.3718Z" fill="white"/>
<path d="M70.5859 36.0492L77.7963 27.5669H71.4483L61.2389 40.0161V27.5669H55.873V47.7127H60.6759L67.1341 40.1119L71.8843 47.7127H78.2226L70.5859 36.0492Z" fill="white"/>
</g>
<defs>
<clipPath id="clip0_3536_9321">
<rect width="78.2236" height="70" fill="white"/>
</clipPath>
</defs>
</svg>
