<svg width="60" height="60" viewBox="0 0 60 60" fill="none" xmlns="http://www.w3.org/2000/svg">
<rect width="60" height="60" rx="30" fill="#D63A77" fill-opacity="0.8"/>
<path d="M43.966 28.1817L24.3167 16.317C23.9854 16.1168 23.606 16.0075 23.2176 16.0004C22.8292 15.9933 22.446 16.0886 22.1074 16.2766C21.772 16.4617 21.4927 16.7316 21.2981 17.0585C21.1034 17.3855 21.0006 17.7577 21 18.137V41.8637C21.0025 42.4325 21.2338 42.9771 21.643 43.3777C22.0521 43.7783 22.6057 44.0021 23.182 44C23.5843 43.9998 23.9787 43.8904 24.3222 43.6836L43.966 31.8189C44.2818 31.629 44.5427 31.362 44.7238 31.0438C44.9049 30.7255 45 30.3667 45 30.0017C45 29.6367 44.9049 29.2778 44.7238 28.9596C44.5427 28.6413 44.2818 28.3744 43.966 28.1844V28.1817ZM23.182 41.8381V18.1545L42.7973 30.0003L23.182 41.8381Z" fill="#FFFAFF"/>
</svg>
