<svg width="100" height="120" viewBox="0 0 100 120" fill="none" xmlns="http://www.w3.org/2000/svg">
<g id="&#208;&#160;&#208;&#181;&#209;&#129;&#209;&#131;&#209;&#128;&#209;&#129; 1 4" clip-path="url(#clip0_3215_10082)">
<g id="&#208;&#168;&#208;&#176;&#209;&#128; 2">
<g id="&#208;&#161;&#208;&#187;&#208;&#190;&#208;&#185; 1">
<path id="Vector" d="M56.2667 119.999C56.0552 120 55.8455 119.96 55.6501 119.88C55.4547 119.8 55.2775 119.681 55.1289 119.532L0.471166 65.3558C0.320664 65.2083 0.201179 65.0327 0.119631 64.8391C0.0380835 64.6455 -0.00390625 64.4378 -0.00390625 64.2281C-0.00390625 64.0183 0.0380835 63.8106 0.119631 63.617C0.201179 63.4234 0.320664 63.2478 0.471166 63.1003C0.774043 62.8033 1.18289 62.6367 1.60894 62.6367C2.03499 62.6367 2.44384 62.8033 2.74672 63.1003L57.4045 117.277C57.6296 117.5 57.7828 117.784 57.8449 118.093C57.907 118.402 57.8752 118.723 57.7534 119.015C57.6316 119.306 57.4253 119.555 57.1607 119.73C56.8961 119.906 56.585 119.999 56.2667 119.999Z" fill="#F5D7E3"/>
<path id="Vector_2" d="M35.2001 120.001C34.9885 120.002 34.7789 119.962 34.5835 119.881C34.388 119.801 34.2108 119.683 34.0623 119.534L0.471166 86.2386C0.320664 86.0911 0.201179 85.9155 0.119631 85.7219C0.0380835 85.5283 -0.00390625 85.3206 -0.00390625 85.1109C-0.00390625 84.9011 0.0380835 84.6934 0.119631 84.4998C0.201179 84.3062 0.320664 84.1306 0.471166 83.9831C0.774043 83.6861 1.18289 83.5195 1.60894 83.5195C2.03499 83.5195 2.44384 83.6861 2.74672 83.9831L36.3378 117.278C36.4883 117.426 36.6078 117.601 36.6894 117.795C36.7709 117.989 36.8129 118.196 36.8129 118.406C36.8129 118.616 36.7709 118.824 36.6894 119.017C36.6078 119.211 36.4883 119.386 36.3378 119.534C36.1893 119.683 36.0121 119.801 35.8167 119.881C35.6212 119.962 35.4116 120.002 35.2001 120.001Z" fill="#F5D7E3"/>
<path id="Vector_3" d="M77.3316 120C77.1199 120.002 76.9099 119.962 76.7144 119.882C76.5188 119.802 76.3417 119.683 76.1938 119.533L0.46933 44.4844C0.167572 44.1853 -0.00195312 43.7796 -0.00195312 43.3566C-0.00195312 42.9336 0.167572 42.5279 0.46933 42.2288C0.771087 41.9298 1.18036 41.7617 1.60711 41.7617C2.03386 41.7617 2.44313 41.9298 2.74489 42.2288L78.4693 117.277C78.769 117.578 78.937 117.983 78.937 118.405C78.937 118.827 78.769 119.233 78.4693 119.533C78.3205 119.682 78.1432 119.8 77.9479 119.88C77.7525 119.96 77.543 120.001 77.3316 120Z" fill="#F5D7E3"/>
<path id="Vector_4" d="M56.2667 119.999C56.0552 120 55.8455 119.96 55.6501 119.88C55.4547 119.8 55.2775 119.681 55.1289 119.532L0.471166 65.3558C0.320664 65.2083 0.201179 65.0327 0.119631 64.8391C0.0380835 64.6455 -0.00390625 64.4378 -0.00390625 64.2281C-0.00390625 64.0183 0.0380835 63.8106 0.119631 63.617C0.201179 63.4234 0.320664 63.2478 0.471166 63.1003C0.774043 62.8033 1.18289 62.6367 1.60894 62.6367C2.03499 62.6367 2.44384 62.8033 2.74672 63.1003L57.4045 117.277C57.6296 117.5 57.7828 117.784 57.8449 118.093C57.907 118.402 57.8752 118.723 57.7534 119.015C57.6316 119.306 57.4253 119.555 57.1607 119.73C56.8961 119.906 56.585 119.999 56.2667 119.999Z" fill="#F5D7E3"/>
<path id="Vector_5" d="M98.3893 120C98.1779 120.001 97.9684 119.96 97.773 119.88C97.5777 119.8 97.4004 119.682 97.2515 119.533L0.46933 23.6035C0.167572 23.3044 -0.00195312 22.8987 -0.00195312 22.4757C-0.00195312 22.0528 0.167572 21.6471 0.46933 21.348C0.771087 21.0489 1.18036 20.8809 1.60711 20.8809C2.03386 20.8809 2.44313 21.0489 2.74489 21.348L99.5538 117.278C99.7043 117.425 99.8238 117.601 99.9053 117.794C99.9868 117.988 100.029 118.195 100.029 118.405C100.029 118.615 99.9868 118.823 99.9053 119.016C99.8238 119.21 99.7043 119.386 99.5538 119.533C99.4028 119.686 99.2213 119.807 99.0209 119.887C98.8205 119.968 98.6054 120.006 98.3893 120Z" fill="#F5D7E3"/>
<path id="Vector_6" d="M77.3316 120C77.1199 120.002 76.9099 119.962 76.7144 119.882C76.5188 119.802 76.3417 119.683 76.1938 119.533L0.46933 44.4844C0.167572 44.1853 -0.00195312 43.7796 -0.00195312 43.3566C-0.00195312 42.9336 0.167572 42.5279 0.46933 42.2288C0.771087 41.9298 1.18036 41.7617 1.60711 41.7617C2.03386 41.7617 2.44313 41.9298 2.74489 42.2288L78.4693 117.277C78.769 117.578 78.937 117.983 78.937 118.405C78.937 118.827 78.769 119.233 78.4693 119.533C78.3205 119.682 78.1432 119.8 77.9479 119.88C77.7525 119.96 77.543 120.001 77.3316 120Z" fill="#F5D7E3"/>
<path id="Vector_7" d="M35.2001 120.001C34.9885 120.002 34.7789 119.962 34.5835 119.881C34.388 119.801 34.2108 119.683 34.0623 119.534L0.471166 86.2386C0.320664 86.0911 0.201179 85.9155 0.119631 85.7219C0.0380835 85.5283 -0.00390625 85.3206 -0.00390625 85.1109C-0.00390625 84.9011 0.0380835 84.6934 0.119631 84.4998C0.201179 84.3062 0.320664 84.1306 0.471166 83.9831C0.774043 83.6861 1.18289 83.5195 1.60894 83.5195C2.03499 83.5195 2.44384 83.6861 2.74672 83.9831L36.3378 117.278C36.4883 117.426 36.6078 117.601 36.6894 117.795C36.7709 117.989 36.8129 118.196 36.8129 118.406C36.8129 118.616 36.7709 118.824 36.6894 119.017C36.6078 119.211 36.4883 119.386 36.3378 119.534C36.1893 119.683 36.0121 119.801 35.8167 119.881C35.6212 119.962 35.4116 120.002 35.2001 120.001Z" fill="#F5D7E3"/>
<path id="Vector_8" d="M14.132 120C13.9206 120.001 13.711 119.96 13.5157 119.88C13.3203 119.799 13.143 119.682 12.9942 119.533L0.469768 107.119C0.165653 106.819 -0.00613326 106.413 -0.00780025 105.988C-0.00946724 105.564 0.159122 105.156 0.460879 104.854C0.762637 104.553 1.17284 104.383 1.60126 104.381C2.02968 104.379 2.44121 104.546 2.74532 104.845L15.2698 117.26C15.4203 117.407 15.5398 117.583 15.6213 117.776C15.7029 117.97 15.7448 118.177 15.7448 118.387C15.7448 118.597 15.7029 118.805 15.6213 118.998C15.5398 119.192 15.4203 119.368 15.2698 119.515C15.1234 119.668 14.947 119.79 14.7513 119.874C14.5557 119.957 14.3449 120 14.132 120Z" fill="#F5D7E3"/>
<path id="Vector_9" d="M14.132 120C13.9206 120.001 13.711 119.96 13.5157 119.88C13.3203 119.799 13.143 119.682 12.9942 119.533L0.469768 107.119C0.165653 106.819 -0.00613326 106.413 -0.00780025 105.988C-0.00946724 105.564 0.159122 105.156 0.460879 104.854C0.762637 104.553 1.17284 104.383 1.60126 104.381C2.02968 104.379 2.44121 104.546 2.74532 104.845L15.2698 117.26C15.4203 117.407 15.5398 117.583 15.6213 117.776C15.7029 117.97 15.7448 118.177 15.7448 118.387C15.7448 118.597 15.7029 118.805 15.6213 118.998C15.5398 119.192 15.4203 119.368 15.2698 119.515C15.1234 119.668 14.947 119.79 14.7513 119.874C14.5557 119.957 14.3449 120 14.132 120Z" fill="#F5D7E3"/>
<path id="Vector_10" d="M98.39 36.4846C97.9638 36.4818 97.5556 36.3143 97.2522 36.0176L63.6611 2.72249C63.3614 2.42228 63.1934 2.01703 63.1934 1.59473C63.1934 1.17244 63.3614 0.767189 63.6611 0.466981C63.8099 0.317804 63.987 0.199372 64.1824 0.118543C64.3777 0.0377135 64.5872 -0.00390625 64.7988 -0.00390625C65.0105 -0.00390625 65.22 0.0377135 65.4153 0.118543C65.6106 0.199372 65.7878 0.317804 65.9366 0.466981L99.5544 33.7621C99.7795 33.9852 99.9327 34.2693 99.9948 34.5787C100.057 34.8881 100.025 35.2088 99.9033 35.5002C99.7815 35.7916 99.5752 36.0407 99.3106 36.2159C99.046 36.3911 98.7349 36.4846 98.4166 36.4846H98.39Z" fill="#F5D7E3"/>
<path id="Vector_11" d="M98.3888 57.3658C97.9627 57.363 97.5544 57.1955 97.251 56.8989L42.6021 2.72264C42.3004 2.42354 42.1309 2.01787 42.1309 1.59488C42.1309 1.17189 42.3004 0.76623 42.6021 0.467131C42.9039 0.168032 43.3132 0 43.7399 0C44.1667 0 44.5759 0.168032 44.8777 0.467131L99.5532 54.6257C99.7783 54.8488 99.9316 55.1329 99.9937 55.4423C100.056 55.7517 100.024 56.0724 99.9021 56.3638C99.7803 56.6552 99.5741 56.9043 99.3094 57.0795C99.0448 57.2547 98.7337 57.3482 98.4155 57.3482L98.3888 57.3658Z" fill="#F5D7E3"/>
<path id="Vector_12" d="M98.3903 15.4009C97.9642 15.3981 97.5559 15.2306 97.2526 14.9339L84.9325 2.72249C84.6329 2.42228 84.4648 2.01703 84.4648 1.59473C84.4648 1.17244 84.6329 0.767189 84.9325 0.466981C85.0814 0.317804 85.2585 0.199372 85.4538 0.118543C85.6491 0.0377135 85.8587 -0.00390625 86.0703 -0.00390625C86.282 -0.00390625 86.4915 0.0377135 86.6868 0.118543C86.8821 0.199372 87.0593 0.317804 87.2081 0.466981L99.5548 12.6784C99.7798 12.9015 99.9331 13.1856 99.9952 13.495C100.057 13.8044 100.025 14.1251 99.9036 14.4165C99.7818 14.7079 99.5756 14.957 99.311 15.1322C99.0463 15.3074 98.7352 15.4009 98.417 15.4009H98.3903Z" fill="#F5D7E3"/>
<path id="Vector_13" d="M98.39 36.4846C97.9638 36.4818 97.5556 36.3143 97.2522 36.0176L63.6611 2.72249C63.3614 2.42228 63.1934 2.01703 63.1934 1.59473C63.1934 1.17244 63.3614 0.767189 63.6611 0.466981C63.8099 0.317804 63.987 0.199372 64.1824 0.118543C64.3777 0.0377135 64.5872 -0.00390625 64.7988 -0.00390625C65.0105 -0.00390625 65.22 0.0377135 65.4153 0.118543C65.6106 0.199372 65.7878 0.317804 65.9366 0.466981L99.5544 33.7621C99.7795 33.9852 99.9327 34.2693 99.9948 34.5787C100.057 34.8881 100.025 35.2088 99.9033 35.5002C99.7815 35.7916 99.5752 36.0407 99.3106 36.2159C99.046 36.3911 98.7349 36.4846 98.4166 36.4846H98.39Z" fill="#F5D7E3"/>
<path id="Vector_14" d="M98.3913 99.1279C98.1793 99.1273 97.9695 99.0849 97.7742 99.0032C97.5789 98.9215 97.4019 98.8022 97.2535 98.6522L0.471283 2.72264C0.169526 2.42354 -3.17953e-09 2.01787 0 1.59488C3.17953e-09 1.17189 0.169526 0.76623 0.471283 0.467131C0.77304 0.168032 1.18231 3.15152e-09 1.60906 0C2.03581 -3.15152e-09 2.44508 0.168032 2.74684 0.467131L99.5557 96.3966C99.7062 96.5441 99.8257 96.7198 99.9073 96.9133C99.9888 97.1069 100.031 97.3146 100.031 97.5244C100.031 97.7342 99.9888 97.9419 99.9073 98.1355C99.8257 98.329 99.7062 98.5047 99.5557 98.6522C99.4052 98.8067 99.224 98.9287 99.0236 99.0106C98.8232 99.0924 98.608 99.1324 98.3913 99.1279Z" fill="#F5D7E3"/>
<path id="Vector_15" d="M98.3893 120C98.1779 120.001 97.9684 119.96 97.773 119.88C97.5777 119.8 97.4004 119.682 97.2515 119.533L0.46933 23.6035C0.167572 23.3044 -0.00195312 22.8987 -0.00195312 22.4757C-0.00195312 22.0528 0.167572 21.6471 0.46933 21.348C0.771087 21.0489 1.18036 20.8809 1.60711 20.8809C2.03386 20.8809 2.44313 21.0489 2.74489 21.348L99.5538 117.278C99.7043 117.425 99.8238 117.601 99.9053 117.794C99.9868 117.988 100.029 118.195 100.029 118.405C100.029 118.615 99.9868 118.823 99.9053 119.016C99.8238 119.21 99.7043 119.386 99.5538 119.533C99.4028 119.686 99.2213 119.807 99.0209 119.887C98.8205 119.968 98.6054 120.006 98.3893 120Z" fill="#F5D7E3"/>
<path id="Vector_16" d="M98.3903 15.4009C97.9642 15.3981 97.5559 15.2306 97.2526 14.9339L84.9325 2.72249C84.6329 2.42228 84.4648 2.01703 84.4648 1.59473C84.4648 1.17244 84.6329 0.767189 84.9325 0.466981C85.0814 0.317804 85.2585 0.199372 85.4538 0.118543C85.6491 0.0377135 85.8587 -0.00390625 86.0703 -0.00390625C86.282 -0.00390625 86.4915 0.0377135 86.6868 0.118543C86.8821 0.199372 87.0593 0.317804 87.2081 0.466981L99.5548 12.6784C99.7798 12.9015 99.9331 13.1856 99.9952 13.495C100.057 13.8044 100.025 14.1251 99.9036 14.4165C99.7818 14.7079 99.5756 14.957 99.311 15.1322C99.0463 15.3074 98.7352 15.4009 98.417 15.4009H98.3903Z" fill="#F5D7E3"/>
<path id="Vector_17" d="M98.3888 57.3658C97.9627 57.363 97.5544 57.1955 97.251 56.8989L42.6021 2.72264C42.3004 2.42354 42.1309 2.01787 42.1309 1.59488C42.1309 1.17189 42.3004 0.76623 42.6021 0.467131C42.9039 0.168032 43.3132 0 43.7399 0C44.1667 0 44.5759 0.168032 44.8777 0.467131L99.5532 54.6257C99.7783 54.8488 99.9316 55.1329 99.9937 55.4423C100.056 55.7517 100.024 56.0724 99.9021 56.3638C99.7803 56.6552 99.5741 56.9043 99.3094 57.0795C99.0448 57.2547 98.7337 57.3482 98.4155 57.3482L98.3888 57.3658Z" fill="#F5D7E3"/>
<path id="Vector_18" d="M98.391 78.2469C97.9649 78.2441 97.5567 78.0765 97.2533 77.7799L21.5377 2.72264C21.2359 2.42354 21.0664 2.01787 21.0664 1.59488C21.0664 1.17189 21.2359 0.76623 21.5377 0.467131C21.8394 0.168032 22.2487 0 22.6755 0C23.1022 0 23.5115 0.168032 23.8132 0.467131L99.5555 75.5244C99.7805 75.7474 99.9338 76.0316 99.9959 76.341C100.058 76.6504 100.026 76.971 99.9043 77.2625C99.7825 77.5539 99.5763 77.803 99.3117 77.9782C99.047 78.1534 98.7359 78.2469 98.4177 78.2469H98.391Z" fill="#F5D7E3"/>
<path id="Vector_19" d="M98.391 78.2469C97.9649 78.2441 97.5567 78.0765 97.2533 77.7799L21.5377 2.72264C21.2359 2.42354 21.0664 2.01787 21.0664 1.59488C21.0664 1.17189 21.2359 0.76623 21.5377 0.467131C21.8394 0.168032 22.2487 0 22.6755 0C23.1022 0 23.5115 0.168032 23.8132 0.467131L99.5555 75.5244C99.7805 75.7474 99.9338 76.0316 99.9959 76.341C100.058 76.6504 100.026 76.971 99.9043 77.2625C99.7825 77.5539 99.5763 77.803 99.3117 77.9782C99.047 78.1534 98.7359 78.2469 98.4177 78.2469H98.391Z" fill="#F5D7E3"/>
<path id="Vector_20" d="M98.3913 99.1279C98.1793 99.1273 97.9695 99.0849 97.7742 99.0032C97.5789 98.9215 97.4019 98.8022 97.2535 98.6522L0.471283 2.72264C0.169526 2.42354 -3.17953e-09 2.01787 0 1.59488C3.17953e-09 1.17189 0.169526 0.76623 0.471283 0.467131C0.77304 0.168032 1.18231 3.15152e-09 1.60906 0C2.03581 -3.15152e-09 2.44508 0.168032 2.74684 0.467131L99.5557 96.3966C99.7062 96.5441 99.8257 96.7198 99.9073 96.9133C99.9888 97.1069 100.031 97.3146 100.031 97.5244C100.031 97.7342 99.9888 97.9419 99.9073 98.1355C99.8257 98.329 99.7062 98.5047 99.5557 98.6522C99.4052 98.8067 99.224 98.9287 99.0236 99.0106C98.8232 99.0924 98.608 99.1324 98.3913 99.1279Z" fill="#F5D7E3"/>
</g>
</g>
</g>
<defs>
<clipPath id="clip0_3215_10082">
<rect width="100" height="120" fill="white"/>
</clipPath>
</defs>
</svg>
